#N canvas 727 230 450 300 12;
#X obj 130 114 fudiparse;
#X obj 249 207 print;
#X listbox 278 163 20 0 0 0 - - - 0;
#X obj 243 136 route /blabla/cus;
#X msg 111 18 listen 8234;
#X obj 40 154 print;
#X listbox 91 169 20 0 0 0 - - - 0;
#X obj 130 54 netreceive -u -b;
#X connect 0 0 3 0;
#X connect 3 0 1 0;
#X connect 3 0 2 0;
#X connect 4 0 7 0;
#X connect 7 0 0 0;
