#N canvas 442 25 804 685 12;
#X obj 185 103 loadbang;
#X obj 369 32 tgl 19 0 empty empty empty 0 -10 0 12 #fcfcfc #000000 #000000 0 1;
#X obj 376 113 bng 19 250 50 0 empty empty empty 0 -10 0 12 #fcfcfc #000000 #000000;
#X obj 485 35 + 1;
#X obj 385 177 float;
#X floatatom 387 213 5 0 0 0 - - - 0;
#X obj 387 236 mod 7;
#X floatatom 387 260 5 0 0 0 - - - 0;
#X obj 387 283 select 0 1 2 3 4 5 6;
#X obj 215 339 bng 19 250 50 0 empty empty empty 0 -10 0 12 #fcfcfc #000000 #000000;
#X obj 305 342 bng 19 250 50 0 empty empty empty 0 -10 0 12 #fcfcfc #000000 #000000;
#X obj 353 406 bng 19 250 50 0 empty empty empty 0 -10 0 12 #fcfcfc #000000 #000000;
#X obj 424 376 bng 19 250 50 0 empty empty empty 0 -10 0 12 #fcfcfc #000000 #000000;
#X obj 487 463 bng 19 250 50 0 empty empty empty 0 -10 0 12 #fcfcfc #000000 #000000;
#X obj 589 442 bng 19 250 50 0 empty empty empty 0 -10 0 12 #fcfcfc #000000 #000000;
#X obj 715 330 bng 19 250 50 0 empty empty empty 0 -10 0 12 #fcfcfc #000000 #000000;
#X obj 207 378 float;
#X obj 240 194 vsl 19 162 0 2000 0 0 empty empty empty 0 -9 0 12 #fcfcfc #000000 #000000 0 1;
#X obj 300 397 float;
#X obj 337 183 vsl 19 162 0 2000 0 0 empty empty empty 0 -9 0 12 #fcfcfc #000000 #000000 0 1;
#X obj 353 497 float;
#X obj 386 313 vsl 19 162 0 2000 0 0 empty empty empty 0 -9 0 12 #fcfcfc #000000 #000000 0 1;
#X obj 422 503 float;
#X obj 451 315 vsl 19 162 0 2000 0 0 empty empty empty 0 -9 0 12 #fcfcfc #000000 #000000 0 1;
#X obj 478 497 float;
#X obj 511 313 vsl 19 162 0 2000 0 0 empty empty empty 0 -9 0 12 #fcfcfc #000000 #000000 0 1;
#X obj 587 494 float;
#X obj 622 306 vsl 19 162 0 2000 0 0 empty empty empty 0 -9 0 12 #fcfcfc #000000 #000000 0 1;
#X obj 719 452 float;
#X obj 752 268 vsl 19 162 0 2000 0 0 empty empty empty 0 -9 0 12 #fcfcfc #000000 #000000 0 1;
#X obj 662 99 float;
#X obj 616 159 osc~;
#X obj 823 398 dac~;
#X obj 207 402 send hodn;
#X obj 616 55 receive hodn;
#X obj 300 421 send hodn;
#X obj 353 521 send hodn;
#X obj 422 527 send hodn;
#X obj 478 521 send hodn;
#X obj 587 518 send hodn;
#X obj 719 476 send hodn;
#X obj 373 73 metro;
#X floatatom 418 23 5 0 0 0 - - - 0;
#X obj 821 602 spigot;
#X obj 778 606 moses;
#X obj 37 37 set;
#X obj 684 194 phasor~;
#X obj 485 59 % 7;
#X floatatom 469 118 5 0 0 0 - - - 0;
#X obj 850 46 vsl 19 38 10 1000 1 0 empty empty empty 0 -9 0 12 #fcfcfc #000000 #000000 0 1;
#X obj 942 142 vsl 19 162 0 2000 0 0 empty empty empty 0 -9 0 12 #fcfcfc #000000 #000000 0 1;
#X obj 792 138 *;
#X floatatom 833 121 5 0 0 0 - - - 0;
#X obj 804 231 +~;
#X obj 802 191 osc~;
#X obj 822 309 lop~;
#X obj 976 84 snapshot~;
#X obj 1073 49 metro;
#X obj 1048 8 tgl 19 0 empty empty empty 0 -10 0 12 #fcfcfc #000000 #000000 0 1;
#X obj 981 49 osc~;
#X floatatom 1112 13 5 0 0 0 - - - 0;
#X obj 557 114 vsl 19 162 0 1 0 0 empty empty empty 0 -9 0 12 #fcfcfc #000000 #000000 0 1;
#X obj 1028 424 ahojmami;
#X obj 1040 289 bng 19 250 50 0 empty empty empty 0 -10 0 12 #fcfcfc #000000 #000000;
#X connect 1 0 41 0;
#X connect 2 0 4 0;
#X connect 3 0 47 0;
#X connect 4 0 3 0;
#X connect 4 0 5 0;
#X connect 5 0 6 0;
#X connect 6 0 7 0;
#X connect 7 0 8 0;
#X connect 8 0 9 0;
#X connect 8 1 10 0;
#X connect 8 2 11 0;
#X connect 8 3 12 0;
#X connect 8 4 13 0;
#X connect 8 5 14 0;
#X connect 8 6 15 0;
#X connect 9 0 16 0;
#X connect 10 0 18 0;
#X connect 11 0 20 0;
#X connect 12 0 22 0;
#X connect 13 0 24 0;
#X connect 14 0 26 0;
#X connect 15 0 28 0;
#X connect 16 0 33 0;
#X connect 17 0 16 1;
#X connect 18 0 35 0;
#X connect 19 0 18 1;
#X connect 20 0 36 0;
#X connect 21 0 20 1;
#X connect 22 0 37 0;
#X connect 23 0 22 1;
#X connect 24 0 38 0;
#X connect 25 0 24 1;
#X connect 26 0 39 0;
#X connect 27 0 26 1;
#X connect 28 0 40 0;
#X connect 29 0 28 1;
#X connect 30 0 31 0;
#X connect 30 0 46 0;
#X connect 30 0 51 0;
#X connect 34 0 30 0;
#X connect 41 0 2 0;
#X connect 42 0 41 1;
#X connect 46 0 53 0;
#X connect 47 0 48 0;
#X connect 48 0 4 1;
#X connect 49 0 59 0;
#X connect 50 0 55 1;
#X connect 51 0 54 0;
#X connect 52 0 51 1;
#X connect 53 0 55 0;
#X connect 54 0 53 0;
#X connect 55 0 32 0;
#X connect 55 0 32 1;
#X connect 56 0 52 0;
#X connect 57 0 56 0;
#X connect 58 0 57 0;
#X connect 59 0 56 0;
#X connect 60 0 57 1;
#X connect 61 0 46 1;
#X connect 63 0 62 0;
