#N canvas 1 25 1280 685 12;
#X obj 185 103 loadbang;
#X obj 369 32 tgl 19 0 empty empty empty 0 -10 0 12 #fcfcfc #000000 #000000 0 1;
#X obj 376 113 bng 19 250 50 0 empty empty empty 0 -10 0 12 #fcfcfc #000000 #000000;
#X floatatom 451 116 5 0 0 0 - - - 0;
#X obj 485 35 + 1;
#X obj 385 177 float;
#X floatatom 387 213 5 0 0 0 - - - 0;
#X obj 387 236 mod 7;
#X floatatom 387 260 5 0 0 0 - - - 0;
#X obj 387 283 select 0 1 2 3 4 5 6;
#X obj 215 339 bng 19 250 50 0 empty empty empty 0 -10 0 12 #fcfcfc #000000 #000000;
#X obj 305 342 bng 19 250 50 0 empty empty empty 0 -10 0 12 #fcfcfc #000000 #000000;
#X obj 353 406 bng 19 250 50 0 empty empty empty 0 -10 0 12 #fcfcfc #000000 #000000;
#X obj 424 376 bng 19 250 50 0 empty empty empty 0 -10 0 12 #fcfcfc #000000 #000000;
#X obj 487 463 bng 19 250 50 0 empty empty empty 0 -10 0 12 #fcfcfc #000000 #000000;
#X obj 589 442 bng 19 250 50 0 empty empty empty 0 -10 0 12 #fcfcfc #000000 #000000;
#X obj 715 330 bng 19 250 50 0 empty empty empty 0 -10 0 12 #fcfcfc #000000 #000000;
#X obj 207 378 float;
#X obj 240 194 vsl 19 162 0 2000 0 0 empty empty empty 0 -9 0 12 #fcfcfc #000000 #000000 0 1;
#X obj 300 397 float;
#X obj 337 183 vsl 19 162 0 2000 0 0 empty empty empty 0 -9 0 12 #fcfcfc #000000 #000000 0 1;
#X obj 353 497 float;
#X obj 386 313 vsl 19 162 0 2000 0 0 empty empty empty 0 -9 0 12 #fcfcfc #000000 #000000 0 1;
#X obj 422 503 float;
#X obj 455 319 vsl 19 162 0 2000 0 0 empty empty empty 0 -9 0 12 #fcfcfc #000000 #000000 0 1;
#X obj 478 497 float;
#X obj 511 313 vsl 19 162 0 2000 0 0 empty empty empty 0 -9 0 12 #fcfcfc #000000 #000000 0 1;
#X obj 587 494 float;
#X obj 620 310 vsl 19 162 0 2000 0 0 empty empty empty 0 -9 0 12 #fcfcfc #000000 #000000 0 1;
#X obj 719 452 float;
#X obj 752 268 vsl 19 162 0 2000 0 0 empty empty empty 0 -9 0 12 #fcfcfc #000000 #000000 0 1;
#X obj 662 99 float;
#X obj 662 123 osc~;
#X obj 702 251 dac~;
#X obj 207 402 send hodn;
#X obj 616 55 receive hodn;
#X obj 300 421 send hodn;
#X obj 353 521 send hodn;
#X obj 422 527 send hodn;
#X obj 478 521 send hodn;
#X obj 587 518 send hodn;
#X obj 719 476 send hodn;
#X obj 905 135 receive hodn;
#X obj 905 159 float;
#X obj 905 183 mod 3;
#X obj 905 207 osc~;
#X obj 732 191 *~;
#X obj 373 73 metro;
#X floatatom 418 23 5 0 0 0 - - - 0;
#X connect 1 0 47 0;
#X connect 2 0 5 0;
#X connect 3 0 5 1;
#X connect 4 0 3 0;
#X connect 5 0 4 0;
#X connect 5 0 6 0;
#X connect 6 0 7 0;
#X connect 7 0 8 0;
#X connect 8 0 9 0;
#X connect 9 0 10 0;
#X connect 9 1 11 0;
#X connect 9 2 12 0;
#X connect 9 3 13 0;
#X connect 9 4 14 0;
#X connect 9 5 15 0;
#X connect 9 6 16 0;
#X connect 10 0 17 0;
#X connect 11 0 19 0;
#X connect 12 0 21 0;
#X connect 13 0 23 0;
#X connect 14 0 25 0;
#X connect 15 0 27 0;
#X connect 16 0 29 0;
#X connect 17 0 34 0;
#X connect 18 0 17 1;
#X connect 19 0 36 0;
#X connect 20 0 19 1;
#X connect 21 0 37 0;
#X connect 22 0 21 1;
#X connect 23 0 38 0;
#X connect 24 0 23 1;
#X connect 25 0 39 0;
#X connect 26 0 25 1;
#X connect 27 0 40 0;
#X connect 28 0 27 1;
#X connect 29 0 41 0;
#X connect 30 0 29 1;
#X connect 31 0 32 0;
#X connect 32 0 46 0;
#X connect 35 0 31 0;
#X connect 42 0 43 0;
#X connect 43 0 44 0;
#X connect 44 0 45 0;
#X connect 45 0 46 1;
#X connect 46 0 33 0;
#X connect 46 0 33 1;
#X connect 47 0 2 0;
#X connect 48 0 47 1;
