#N canvas 338 154 914 474 12;
#X msg 307 51 listen 7777;
#X obj 212 150 netreceive -u -b;
#X obj 207 206 oscparse;
#X obj 212 249 list trim;
#X obj 212 273 route matrix;
#X obj 375 131 print udp;
#X obj 113 261 print;
#X obj 212 425 print;
#X msg 171 73 listen 0;
#X obj 212 297 route r3;
#X obj 212 321 route c5;
#X connect 0 0 1 0;
#X connect 1 0 2 0;
#X connect 2 0 3 0;
#X connect 3 0 4 0;
#X connect 4 0 9 0;
#X connect 8 0 1 0;
#X connect 9 0 10 0;
#X connect 10 0 7 0;
