#N canvas 168 50 1022 655 12;
#X msg 251 71 listen 7777;
#X obj 212 150 netreceive -u -b;
#X obj 207 206 oscparse;
#X obj 212 249 list trim;
#X obj 212 280 route matrix;
#X msg 171 73 listen 0;
#X obj 259 14 loadbang;
#X obj 542 325 osc~;
#X msg 542 67 \; pd dsp \$1;
#X obj 427 37 tgl 19 0 empty empty empty 0 -10 0 12 #fcfcfc #000000 #000000 0 1;
#X obj 109 405 sig~;
#X obj 132 500 *~;
#X obj 245 612 dac~;
#X obj 601 323 osc~;
#X obj 659 323 osc~;
#X obj 718 321 osc~;
#X msg 723 277 458;
#X obj 150 407 sig~;
#X obj 190 405 sig~;
#X obj 231 407 sig~;
#X obj 171 501 *~;
#X obj 203 500 *~;
#X obj 238 501 *~;
#X obj 763 320 osc~;
#X obj 821 320 osc~;
#X obj 880 318 osc~;
#X obj 273 405 sig~;
#X obj 314 407 sig~;
#X obj 354 405 sig~;
#X obj 285 512 *~;
#X obj 324 513 *~;
#X obj 356 512 *~;
#X msg 763 280 170;
#X msg 819 281 511;
#X msg 885 274 589;
#X obj 423 175 route pnuk;
#X obj 423 199 route r0;
#X obj 423 223 route c0;
#X obj 365 271 route p0 p1 p2;
#X obj 587 502 bp~;
#X obj 213 311 route r0 r1 r2 r3 r4 r5 r6;
#X obj 48 356 route c6;
#X obj 114 359 route c6;
#X obj 182 358 route c6;
#X obj 248 361 route c6;
#X obj 314 360 route c6;
#X obj 380 363 route c6;
#X obj 446 362 route c6;
#X connect 0 0 1 0;
#X connect 1 0 2 0;
#X connect 2 0 3 0;
#X connect 3 0 4 0;
#X connect 3 0 35 0;
#X connect 4 0 40 0;
#X connect 5 0 1 0;
#X connect 6 0 0 0;
#X connect 6 0 9 0;
#X connect 7 0 11 1;
#X connect 9 0 8 0;
#X connect 9 0 16 0;
#X connect 9 0 32 0;
#X connect 9 0 33 0;
#X connect 9 0 34 0;
#X connect 10 0 11 0;
#X connect 11 0 12 0;
#X connect 11 0 12 1;
#X connect 13 0 20 1;
#X connect 14 0 21 1;
#X connect 15 0 22 1;
#X connect 16 0 15 0;
#X connect 17 0 20 0;
#X connect 18 0 21 0;
#X connect 19 0 22 0;
#X connect 20 0 12 0;
#X connect 20 0 12 1;
#X connect 21 0 12 0;
#X connect 21 0 12 1;
#X connect 22 0 12 0;
#X connect 22 0 12 1;
#X connect 23 0 29 1;
#X connect 24 0 30 1;
#X connect 25 0 31 1;
#X connect 26 0 29 0;
#X connect 27 0 30 0;
#X connect 28 0 31 0;
#X connect 29 0 12 0;
#X connect 29 0 12 1;
#X connect 30 0 12 0;
#X connect 30 0 12 1;
#X connect 31 0 12 0;
#X connect 31 0 12 1;
#X connect 32 0 23 0;
#X connect 33 0 24 0;
#X connect 34 0 25 0;
#X connect 35 0 36 0;
#X connect 36 0 37 0;
#X connect 37 0 38 0;
#X connect 38 0 7 0;
#X connect 38 1 13 0;
#X connect 38 2 14 0;
#X connect 40 0 41 0;
#X connect 40 1 42 0;
#X connect 40 2 43 0;
#X connect 40 3 44 0;
#X connect 40 4 45 0;
#X connect 40 5 46 0;
#X connect 40 6 47 0;
#X connect 41 0 10 0;
#X connect 42 0 17 0;
#X connect 43 0 18 0;
#X connect 44 0 19 0;
#X connect 45 0 26 0;
#X connect 46 0 27 0;
#X connect 47 0 28 0;
