#N canvas 485 25 571 684 12;
#X obj 161 9 loadbang;
#X obj 27 77 tgl 19 0 empty empty empty 0 -10 0 12 #fcfcfc #000000 #000000 0 1;
#X msg 25 107 \; pd dsp \$1;
#X obj 315 95 fudiparse;
#X obj 316 70 netreceive -u -b;
#X msg 317 44 listen 7777;
#X obj 330 165 route /matrix;
#X obj 297 657 dac~;
#X obj 113 543 gridlocke/simple_matrix~;
#X obj 27 165 route /pnuky;
#X obj 27 289 gridlocke/pnukget 0 0;
#X obj 109 614 s~ flirtr;
#X obj 131 429 r~ flirtr;
#X obj 27 189 s pnuk;
#X obj 27 257 r pnuk;
#X obj 68 393 gridlocke/pnukget 0 1;
#X obj 67 365 r pnuk;
#X obj 231 256 r pnuk;
#X obj 290 321 * 0.5;
#X obj 219 289 gridlocke/pnukget 0 2;
#X obj 160 476 bp~;
#X obj 358 511 gridlocke/pnukget 6 0;
#X obj 360 539 * 0.1;
#X obj 56 476 osc~ 200;
#X obj 100 502 osc~ 300;
#X obj 258 348 r pnuk;
#X obj 257 416 * 10;
#X obj 207 477 osc~;
#X obj 305 599 *~ 1;
#X obj 258 385 gridlocke/pnukget 0 3;
#X obj 218 320 * 100;
#X connect 0 0 1 0;
#X connect 0 0 5 0;
#X connect 1 0 2 0;
#X connect 3 0 6 0;
#X connect 3 0 9 0;
#X connect 4 0 3 0;
#X connect 5 0 4 0;
#X connect 6 0 8 7;
#X connect 8 0 11 0;
#X connect 8 6 28 0;
#X connect 9 0 13 0;
#X connect 10 0 23 0;
#X connect 12 0 20 0;
#X connect 14 0 10 0;
#X connect 15 0 24 0;
#X connect 16 0 15 0;
#X connect 17 0 19 0;
#X connect 18 0 20 2;
#X connect 19 0 30 0;
#X connect 19 1 18 0;
#X connect 20 0 8 2;
#X connect 21 0 22 0;
#X connect 22 0 28 1;
#X connect 23 0 8 0;
#X connect 24 0 8 1;
#X connect 25 0 29 0;
#X connect 26 0 27 0;
#X connect 27 0 8 3;
#X connect 28 0 7 0;
#X connect 28 0 7 1;
#X connect 29 0 26 0;
#X connect 30 0 20 1;
#X coords 0 0 1 1 85 60 0;
