#N canvas 123 25 977 684 12;
#X obj 161 9 loadbang;
#X obj 27 77 tgl 19 0 empty empty empty 0 -10 0 12 #fcfcfc #000000 #000000 0 1;
#X msg 25 107 \; pd dsp \$1;
#X obj 315 95 fudiparse;
#X obj 316 70 netreceive -u -b;
#X msg 317 44 listen 7777;
#X obj 315 124 route /matrix;
#X obj 297 657 dac~;
#X obj 113 543 gridlocke/simple_matrix~;
#X obj 27 165 route /pnuky;
#X obj 27 289 gridlocke/pnukget 0 0;
#X obj 24 604 s~ flirtr;
#X obj 187 444 r~ flirtr;
#X obj 27 189 s pnuk;
#X obj 27 257 r pnuk;
#X obj 85 349 gridlocke/pnukget 0 1;
#X obj 84 321 r pnuk;
#X obj 203 173 r pnuk;
#X obj 262 238 * 0.5;
#X obj 191 206 gridlocke/pnukget 0 2;
#X obj 203 479 bp~;
#X obj 358 511 gridlocke/pnukget 6 0;
#X obj 357 539 * 0.1;
#X obj 32 461 osc~ 200;
#X obj 99 378 osc~ 300;
#X obj 320 239 r pnuk;
#X obj 319 307 * 10;
#X obj 145 472 osc~;
#X obj 320 276 gridlocke/pnukget 0 3;
#X obj 190 237 * 100;
#X obj 104 642 delwrite~ caute 1000;
#X obj 543 174 gridlocke/mrg 5;
#X obj 558 39 r pnuk;
#X obj 557 66 gridlocke/pnukget 0 5;
#X obj 268 415 delread~ caute;
#X obj 269 366 r pnuk;
#X obj 269 391 gridlocke/pnukget 0 4;
#X obj 275 462 *~ 0.9;
#X obj 482 226 sel 0;
#X obj 528 228 sel 1;
#X obj 580 227 sel 2;
#X obj 626 229 sel 3;
#X obj 671 227 sel 4;
#X obj 723 223 sel 5;
#X obj 770 212 sel 6;
#X msg 482 250 170;
#X msg 528 252 203;
#X msg 580 251 159;
#X msg 626 253 250;
#X msg 671 251 327;
#X msg 723 247 360;
#X msg 770 236 412;
#X obj 181 390 osc~;
#X obj 161 70 print cau;
#X obj 358 480 r pnuk;
#X obj 305 599 *~;
#X obj 557 111 metro 100;
#X obj 410 210 print;
#X obj 502 71 tgl 19 0 empty empty empty 0 -10 0 12 #fcfcfc #000000 #000000 0 1;
#X obj 357 563 print;
#X obj 557 135 print;
#X connect 0 0 1 0;
#X connect 0 0 5 0;
#X connect 0 0 53 0;
#X connect 0 0 58 0;
#X connect 1 0 2 0;
#X connect 3 0 6 0;
#X connect 3 0 9 0;
#X connect 4 0 3 0;
#X connect 5 0 4 0;
#X connect 6 0 8 7;
#X connect 6 0 31 1;
#X connect 8 0 11 0;
#X connect 8 1 30 0;
#X connect 8 6 55 0;
#X connect 9 0 13 0;
#X connect 10 0 23 0;
#X connect 12 0 20 0;
#X connect 14 0 10 0;
#X connect 15 0 24 0;
#X connect 16 0 15 0;
#X connect 17 0 19 0;
#X connect 18 0 20 2;
#X connect 19 0 29 0;
#X connect 19 1 18 0;
#X connect 20 0 8 4;
#X connect 21 0 22 0;
#X connect 22 0 55 1;
#X connect 22 0 59 0;
#X connect 23 0 8 0;
#X connect 24 0 8 1;
#X connect 25 0 28 0;
#X connect 26 0 27 0;
#X connect 27 0 8 2;
#X connect 28 0 26 0;
#X connect 29 0 20 1;
#X connect 31 0 38 0;
#X connect 31 0 39 0;
#X connect 31 0 40 0;
#X connect 31 0 41 0;
#X connect 31 0 42 0;
#X connect 31 0 43 0;
#X connect 31 0 44 0;
#X connect 31 0 57 0;
#X connect 32 0 33 0;
#X connect 33 0 56 0;
#X connect 34 0 37 0;
#X connect 34 0 8 5;
#X connect 35 0 36 0;
#X connect 36 0 34 0;
#X connect 37 0 30 0;
#X connect 38 0 45 0;
#X connect 39 0 46 0;
#X connect 40 0 47 0;
#X connect 41 0 48 0;
#X connect 42 0 49 0;
#X connect 43 0 50 0;
#X connect 44 0 51 0;
#X connect 45 0 52 0;
#X connect 46 0 52 0;
#X connect 47 0 52 0;
#X connect 48 0 52 0;
#X connect 49 0 52 0;
#X connect 50 0 52 0;
#X connect 51 0 52 0;
#X connect 52 0 8 3;
#X connect 54 0 21 0;
#X connect 55 0 7 0;
#X connect 55 0 7 1;
#X connect 56 0 31 0;
#X connect 56 0 60 0;
#X connect 58 0 56 0;
#X coords 0 0 1 1 85 60 0;
