#N canvas 631 25 527 684 12;
#X declare -lib gridlocke;
#X obj 161 9 loadbang;
#X obj 27 77 tgl 19 0 empty empty empty 0 -10 0 12 #fcfcfc #000000 #000000 0 1;
#X msg 25 107 \; pd dsp \$1;
#X obj 315 95 fudiparse;
#X obj 316 70 netreceive -u -b;
#X msg 317 44 listen 7777;
#X obj 334 140 route /matrix;
#X obj 207 123 route /pnuky;
#X obj 207 147 s pnuk;
#X obj 334 187 s mx;
#X obj 282 492 r mx;
#X obj 280 602 dac~;
#X obj 293 561 *~;
#X obj 106 147 tgl 19 0 empty empty empty 0 -10 0 12 #fcfcfc #000000 #000000 0 1;
#X obj 106 210 metro 100;
#X obj 27 412 osc~;
#X obj 16 273 sel 0;
#X obj 60 273 sel 1;
#X obj 104 273 sel 2;
#X obj 148 273 sel 3;
#X obj 191 273 sel 4;
#X obj 235 273 sel 5;
#X obj 279 273 sel 6;
#X obj 144 533 simple_matrix~;
#X obj 344 432 r pnuk;
#X obj 344 487 * 0.1;
#X obj 344 463 pnukget 6 6;
#X obj 122 175 pnukget 0 0;
#X obj 33 589 s~ flirt;
#X obj 56 335 r~ flirt;
#X obj 158 390 pnukget 0 2;
#X obj 159 362 r pnuk;
#X obj 29 645 declare -lib gridlocke;
#X obj 106 234 mrg 6;
#N canvas 270 238 637 300 sekvoj 0;
#X obj 74 69 inlet;
#X obj 144 69 inlet;
#X obj 204 69 inlet;
#X obj 274 69 inlet;
#X obj 337 69 inlet;
#X obj 397 69 inlet;
#X obj 467 69 inlet;
#X obj 261 275 outlet;
#X obj 34 170 f;
#X obj 129 181 f;
#X obj 221 193 f;
#X obj 288 134 f;
#X obj 382 145 f;
#X obj 474 157 f;
#X obj 248 167 pnukget 2 0;
#X obj 315 108 pnukget 3 0;
#X obj 409 119 pnukget 4 0;
#X obj 501 131 pnukget 5 0;
#X obj 497 204 f;
#X obj 524 178 pnukget 6 0;
#X obj 532 72 inlet;
#X obj 61 144 pnukget 0 0;
#X obj 156 155 pnukget 1 0;
#X connect 0 0 8 0;
#X connect 1 0 9 0;
#X connect 2 0 10 0;
#X connect 3 0 11 0;
#X connect 4 0 12 0;
#X connect 5 0 13 0;
#X connect 6 0 18 0;
#X connect 8 0 7 0;
#X connect 9 0 7 0;
#X connect 10 0 7 0;
#X connect 11 0 7 0;
#X connect 12 0 7 0;
#X connect 13 0 7 0;
#X connect 14 0 10 1;
#X connect 15 0 11 1;
#X connect 16 0 12 1;
#X connect 17 0 13 1;
#X connect 18 0 7 0;
#X connect 19 0 18 1;
#X connect 20 0 14 0;
#X connect 20 0 15 0;
#X connect 20 0 16 0;
#X connect 20 0 17 0;
#X connect 20 0 19 0;
#X connect 20 0 21 0;
#X connect 20 0 22 0;
#X connect 21 0 8 1;
#X connect 22 0 9 1;
#X restore 148 328 pd sekvoj;
#X obj 337 273 r pnuk;
#X obj 211 429 delread~ pozde;
#X obj 268 343 r pnuk;
#X obj 267 371 pnukget 0 3;
#X obj 445 536 *~ 0.9;
#X obj 169 453 * 0.1;
#X obj 138 483 vcf~ 10;
#X obj 114 595 delwrite~ pozde 512;
#X obj 109 366 * 10;
#X obj 136 430 * 100;
#X connect 0 0 1 0;
#X connect 0 0 5 0;
#X connect 0 0 13 0;
#X connect 1 0 2 0;
#X connect 3 0 6 0;
#X connect 3 0 7 0;
#X connect 4 0 3 0;
#X connect 5 0 4 0;
#X connect 6 0 9 0;
#X connect 6 0 33 1;
#X connect 7 0 8 0;
#X connect 7 0 27 0;
#X connect 10 0 23 7;
#X connect 12 0 11 0;
#X connect 12 0 11 1;
#X connect 13 0 14 0;
#X connect 14 0 33 0;
#X connect 15 0 23 1;
#X connect 16 0 34 0;
#X connect 17 0 34 1;
#X connect 18 0 34 2;
#X connect 19 0 34 3;
#X connect 20 0 34 4;
#X connect 21 0 34 5;
#X connect 22 0 34 6;
#X connect 23 0 28 0;
#X connect 23 3 42 0;
#X connect 23 6 12 0;
#X connect 24 0 26 0;
#X connect 25 0 12 1;
#X connect 26 0 25 0;
#X connect 27 1 14 1;
#X connect 29 0 41 0;
#X connect 30 0 44 0;
#X connect 30 1 40 0;
#X connect 31 0 30 0;
#X connect 33 0 16 0;
#X connect 33 0 22 0;
#X connect 33 0 21 0;
#X connect 33 0 20 0;
#X connect 33 0 19 0;
#X connect 33 0 18 0;
#X connect 33 0 17 0;
#X connect 34 0 43 0;
#X connect 35 0 34 7;
#X connect 36 0 39 0;
#X connect 36 0 23 3;
#X connect 37 0 38 0;
#X connect 38 0 36 0;
#X connect 39 0 42 0;
#X connect 40 0 41 2;
#X connect 41 0 23 2;
#X connect 43 0 15 0;
#X connect 44 0 41 1;
