#N canvas 171 50 978 587 12;
#X obj 174 223 gridlocke/simple_matrix~;
#X obj 175 378 dac~;
#X msg 86 91 0;
#X msg 138 23 0;
#X obj 376 111 osc~;
#X msg 401 87 0;
#X obj 65 378 tabwrite~ neco;
#N canvas 0 22 450 278 (subpatch) 0;
#X array neco 100 float 3;
#A 0 0 0 0 0 0 0 0 0 0 0 0 0 0 0 0 0 0 0 0 0 0 0 0 0 0 0 0 0 0 0 0 0 0 0 0 0 0 0 0 0 0 0 0 0 0 0 0 0 0 0 0 0 0 0 0 0 0 0 0 0 0 0 0 0 0 0 0 0 0 0 0 0 0 0 0 0 0 0 0 0 0 0 0 0 0 0 0 0 0 0 0 0 0 0 0 0 0 0 0 0;
#X coords 0 1 100 -1 200 140 1;
#X restore 65 419 graph;
#X obj 8 34 loadbang;
#X obj 81 221 metro 100;
#X msg 196 95 0;
#X obj 220 42 osc~;
#X msg 245 18 0;
#X obj 268 118 osc~;
#X msg 293 94 0;
#X obj 347 44 osc~;
#X msg 372 20 0;
#X msg 206 17 222;
#X msg 333 19 456;
#X msg 362 86 512;
#N canvas 147 201 833 300 demultiplexor_for_me 0;
#X obj 41 50 inlet~;
#X obj 213 265 outlet~;
#X obj 477 52 inlet;
#X obj 14 70 tgl 18 0 empty empty empty 17 7 0 10 #fcfcfc #000000 #000000 0 1;
#X obj 478 83 t f f b;
#X obj 448 145 route 0 1 2 3 4 5 6;
#X obj 14 93 float;
#X obj 14 117 sig~;
#X obj 45 143 *~;
#X obj 102 54 inlet~;
#X obj 75 74 tgl 18 0 empty empty empty 17 7 0 10 #fcfcfc #000000 #000000 0 1;
#X obj 75 97 float;
#X obj 75 121 sig~;
#X obj 106 147 *~;
#X obj 165 59 inlet~;
#X obj 138 79 tgl 18 0 empty empty empty 17 7 0 10 #fcfcfc #000000 #000000 0 1;
#X obj 138 102 float;
#X obj 138 126 sig~;
#X obj 169 152 *~;
#X obj 226 63 inlet~;
#X obj 199 83 tgl 18 0 empty empty empty 17 7 0 10 #fcfcfc #000000 #000000 0 1;
#X obj 199 106 float;
#X obj 199 130 sig~;
#X obj 230 156 *~;
#X obj 281 67 inlet~;
#X obj 254 87 tgl 18 0 empty empty empty 17 7 0 10 #fcfcfc #000000 #000000 0 1;
#X obj 254 110 float;
#X obj 254 134 sig~;
#X obj 285 160 *~;
#X obj 344 72 inlet~;
#X obj 317 92 tgl 18 0 empty empty empty 17 7 0 10 #fcfcfc #000000 #000000 0 1;
#X obj 317 115 float;
#X obj 317 139 sig~;
#X obj 348 165 *~;
#X obj 405 76 inlet~;
#X obj 378 96 tgl 18 0 empty empty empty 17 7 0 10 #fcfcfc #000000 #000000 0 1;
#X obj 378 119 float;
#X obj 378 143 sig~;
#X obj 409 169 *~;
#X text 419 28 radio gui input;
#X obj 498 114 f -3;
#X text 681 71 cau;
#X connect 0 0 8 1;
#X connect 2 0 4 0;
#X connect 3 0 6 0;
#X connect 4 0 40 1;
#X connect 4 1 40 0;
#X connect 4 2 40 0;
#X connect 5 0 3 0;
#X connect 5 1 10 0;
#X connect 5 2 15 0;
#X connect 5 3 20 0;
#X connect 5 4 25 0;
#X connect 5 5 30 0;
#X connect 5 6 35 0;
#X connect 6 0 7 0;
#X connect 7 0 8 0;
#X connect 8 0 1 0;
#X connect 9 0 13 1;
#X connect 10 0 11 0;
#X connect 11 0 12 0;
#X connect 12 0 13 0;
#X connect 13 0 1 0;
#X connect 14 0 18 1;
#X connect 15 0 16 0;
#X connect 16 0 17 0;
#X connect 17 0 18 0;
#X connect 18 0 1 0;
#X connect 19 0 23 1;
#X connect 20 0 21 0;
#X connect 21 0 22 0;
#X connect 22 0 23 0;
#X connect 23 0 1 0;
#X connect 24 0 28 1;
#X connect 25 0 26 0;
#X connect 26 0 27 0;
#X connect 27 0 28 0;
#X connect 28 0 1 0;
#X connect 29 0 33 1;
#X connect 30 0 31 0;
#X connect 31 0 32 0;
#X connect 32 0 33 0;
#X connect 33 0 1 0;
#X connect 34 0 38 1;
#X connect 35 0 36 0;
#X connect 36 0 37 0;
#X connect 37 0 38 0;
#X connect 38 0 1 0;
#X connect 40 0 5 0;
#X restore 181 297 pd demultiplexor_for_me;
#X obj 254 384 hradio 19 1 0 7 empty empty empty 0 -10 0 12 #fcfcfc #000000 #000000 0;
#X obj 408 200 fudiparse;
#X obj 409 175 netreceive -u -b;
#X msg 373 144 listen 7777;
#X obj 408 225 route /matrix;
#X msg 89 279 \; pd dsp \$1;
#X msg 467 144 listen 0;
#X msg 47 90 200;
#X msg 99 22 300;
#X msg 157 94 349;
#X msg 254 93 120;
#X obj 351 267 hsl 162 19 0 127 0 0 empty empty empty -2 -10 0 12 #fcfcfc #000000 #000000 0 1;
#X obj 355 297 hsl 162 19 381 509 0 0 empty empty empty -2 -10 0 12 #fcfcfc #000000 #000000 0 1;
#X obj 41 180 tgl 19 0 empty empty empty 0 -10 0 12 #fcfcfc #000000 #000000 0 1;
#X obj 64 122 osc~ 200;
#X obj 113 47 osc~ 300;
#X obj 171 119 osc~ 349;
#X obj 452 19 tgl 19 0 empty empty empty 0 -10 0 12 #fcfcfc #000000 #000000 0 1;
#X obj 462 78 metro 200;
#X obj 595 229 sel 0;
#X msg 767 250 200;
#X obj 635 296 osc~;
#X obj 552 204 print;
#X obj 767 226 sel 3;
#X msg 595 253 344;
#X obj 654 225 sel 1;
#X obj 715 228 sel 2;
#X msg 654 249 444;
#X msg 715 252 230;
#X msg 844 297 0;
#X obj 635 320 delwrite~ cau 1000;
#X obj 569 456 delread~ cau;
#X floatatom 574 412 5 0 0 0 - - - 0;
#X obj 720 405 *~ 0.9;
#X obj 816 227 sel 5;
#X msg 816 251 500;
#X obj 625 159 gridlocke/mrg 6;
#X msg 868 254 500;
#X obj 868 230 sel 6;
#X connect 0 0 20 0;
#X connect 0 1 20 1;
#X connect 0 2 20 2;
#X connect 0 3 20 3;
#X connect 0 4 20 4;
#X connect 0 5 20 5;
#X connect 0 6 20 6;
#X connect 2 0 35 0;
#X connect 3 0 36 0;
#X connect 4 0 0 6;
#X connect 5 0 4 0;
#X connect 8 0 6 0;
#X connect 8 0 9 0;
#X connect 8 0 24 0;
#X connect 8 0 34 0;
#X connect 9 0 6 0;
#X connect 10 0 37 0;
#X connect 11 0 0 3;
#X connect 12 0 11 0;
#X connect 13 0 0 4;
#X connect 14 0 13 0;
#X connect 15 0 0 5;
#X connect 16 0 15 0;
#X connect 17 0 11 0;
#X connect 18 0 15 0;
#X connect 19 0 4 0;
#X connect 20 0 1 0;
#X connect 20 0 1 1;
#X connect 20 0 6 0;
#X connect 21 0 20 7;
#X connect 22 0 25 0;
#X connect 23 0 22 0;
#X connect 24 0 23 0;
#X connect 25 0 0 7;
#X connect 25 0 57 1;
#X connect 27 0 23 0;
#X connect 28 0 35 0;
#X connect 29 0 36 0;
#X connect 30 0 37 0;
#X connect 31 0 13 0;
#X connect 32 0 13 0;
#X connect 33 0 4 0;
#X connect 34 0 26 0;
#X connect 35 0 0 0;
#X connect 36 0 0 1;
#X connect 37 0 0 2;
#X connect 38 0 39 0;
#X connect 39 0 57 0;
#X connect 40 0 45 0;
#X connect 41 0 42 0;
#X connect 42 0 51 0;
#X connect 44 0 41 0;
#X connect 45 0 42 0;
#X connect 46 0 48 0;
#X connect 47 0 49 0;
#X connect 48 0 42 0;
#X connect 49 0 42 0;
#X connect 50 0 42 0;
#X connect 52 0 1 1;
#X connect 52 0 1 0;
#X connect 52 0 54 0;
#X connect 53 0 52 0;
#X connect 54 0 51 0;
#X connect 55 0 56 0;
#X connect 56 0 42 0;
#X connect 57 0 40 0;
#X connect 57 0 43 0;
#X connect 57 0 44 0;
#X connect 57 0 46 0;
#X connect 57 0 47 0;
#X connect 57 0 55 0;
#X connect 57 0 59 0;
#X connect 58 0 42 0;
#X connect 59 0 58 0;
