#N canvas 116 72 477 587 12;
#X obj 174 223 gridlocke/simple_matrix~;
#X obj 65 113 osc~;
#X obj 175 378 dac~;
#X symbolatom 368 178 10 0 0 0 - - - 0;
#X msg 86 91 0;
#X msg 47 90 279;
#X obj 113 47 osc~;
#X msg 138 23 0;
#X msg 99 22 342;
#X obj 376 111 osc~;
#X msg 401 87 0;
#X obj 65 378 tabwrite~ neco;
#N canvas 0 22 450 278 (subpatch) 0;
#X array neco 100 float 3;
#A 0 0.328892 0.334268 0.339634 0.344989 0.350332 0.355664 0.360985 0.366294 0.371591 0.376876 0.382148 0.387409 0.392656 0.397891 0.403113 0.408322 0.413518 0.4187 0.423868 0.429023 0.434164 0.439291 0.444404 0.449502 0.454585 0.459654 0.464708 0.469746 0.47477 0.479778 0.484771 0.489747 0.494708 0.499652 0.504581 0.509493 0.514389 0.519268 0.52413 0.528975 0.533802 0.538613 0.543406 0.548181 0.552939 0.557678 0.5624 0.567103 0.571787 0.576454 0.581101 0.58573 0.590339 0.59493 0.599501 0.604052 0.608584 0.613097 0.617589 0.622061 0.626513 0.630945 0.635356 0.639747 0.644117 0.648466 0.652793 0.657099 0.661385 0.665648 0.669891 0.674111 0.67831 0.682486 0.68664 0.690772 0.694882 0.698969 0.703034 0.707075 0.711093 0.715089 0.719061 0.723009 0.726935 0.730837 0.734715 0.738569 0.742399 0.746205 0.749987 0.753744 0.757477 0.761186 0.764869 0.768528 0.772162 0.77577 0.779354 0.782913;
#X coords 0 1 100 -1 200 140 1;
#X restore 61 419 graph;
#X obj 34 165 loadbang;
#X obj 81 221 metro 100;
#X obj 171 119 osc~;
#X msg 196 95 0;
#X obj 220 42 osc~;
#X msg 245 18 0;
#X obj 268 118 osc~;
#X msg 293 94 0;
#X obj 347 44 osc~;
#X msg 372 20 0;
#X msg 157 94 130;
#X msg 206 17 222;
#X msg 254 93 40;
#X msg 333 19 456;
#X msg 362 86 512;
#N canvas 650 249 833 300 demultiplexor_for_me 0;
#X obj 41 50 inlet~;
#X obj 213 265 outlet~;
#X obj 477 52 inlet;
#X obj 14 70 tgl 18 0 empty empty empty 17 7 0 10 #fcfcfc #000000 #000000 0 1;
#X obj 478 83 t f f b;
#X obj 448 145 route 0 1 2 3 4 5 6;
#X obj 14 93 float;
#X obj 14 117 sig~;
#X obj 45 143 *~;
#X obj 102 54 inlet~;
#X obj 75 74 tgl 18 0 empty empty empty 17 7 0 10 #fcfcfc #000000 #000000 0 1;
#X obj 75 97 float;
#X obj 75 121 sig~;
#X obj 106 147 *~;
#X obj 165 59 inlet~;
#X obj 138 79 tgl 18 0 empty empty empty 17 7 0 10 #fcfcfc #000000 #000000 0 1;
#X obj 138 102 float;
#X obj 138 126 sig~;
#X obj 169 152 *~;
#X obj 226 63 inlet~;
#X obj 199 83 tgl 18 0 empty empty empty 17 7 0 10 #fcfcfc #000000 #000000 0 1;
#X obj 199 106 float;
#X obj 199 130 sig~;
#X obj 230 156 *~;
#X obj 281 67 inlet~;
#X obj 254 87 tgl 18 0 empty empty empty 17 7 0 10 #fcfcfc #000000 #000000 0 1;
#X obj 254 110 float;
#X obj 254 134 sig~;
#X obj 285 160 *~;
#X obj 344 72 inlet~;
#X obj 317 92 tgl 18 0 empty empty empty 17 7 0 10 #fcfcfc #000000 #000000 0 1;
#X obj 317 115 float;
#X obj 317 139 sig~;
#X obj 348 165 *~;
#X obj 405 76 inlet~;
#X obj 378 96 tgl 18 0 empty empty empty 17 7 0 10 #fcfcfc #000000 #000000 0 1;
#X obj 378 119 float;
#X obj 378 143 sig~;
#X obj 409 169 *~;
#X text 419 28 radio gui input;
#X obj 498 114 f -3;
#X connect 0 0 8 1;
#X connect 2 0 4 0;
#X connect 3 0 6 0;
#X connect 4 0 40 1;
#X connect 4 1 40 0;
#X connect 4 2 40 0;
#X connect 5 0 3 0;
#X connect 5 1 10 0;
#X connect 5 2 15 0;
#X connect 5 3 20 0;
#X connect 5 4 25 0;
#X connect 5 5 30 0;
#X connect 5 6 35 0;
#X connect 6 0 7 0;
#X connect 7 0 8 0;
#X connect 8 0 1 0;
#X connect 9 0 13 1;
#X connect 10 0 11 0;
#X connect 11 0 12 0;
#X connect 12 0 13 0;
#X connect 13 0 1 0;
#X connect 14 0 18 1;
#X connect 15 0 16 0;
#X connect 16 0 17 0;
#X connect 17 0 18 0;
#X connect 18 0 1 0;
#X connect 19 0 23 1;
#X connect 20 0 21 0;
#X connect 21 0 22 0;
#X connect 22 0 23 0;
#X connect 23 0 1 0;
#X connect 24 0 28 1;
#X connect 25 0 26 0;
#X connect 26 0 27 0;
#X connect 27 0 28 0;
#X connect 28 0 1 0;
#X connect 29 0 33 1;
#X connect 30 0 31 0;
#X connect 31 0 32 0;
#X connect 32 0 33 0;
#X connect 33 0 1 0;
#X connect 34 0 38 1;
#X connect 35 0 36 0;
#X connect 36 0 37 0;
#X connect 37 0 38 0;
#X connect 38 0 1 0;
#X connect 40 0 5 0;
#X restore 181 297 pd demultiplexor_for_me;
#X obj 255 384 hradio 19 1 0 7 empty empty empty 0 -10 0 12 #fcfcfc #000000 #000000 0;
#X connect 0 0 28 0;
#X connect 0 1 28 1;
#X connect 0 2 28 2;
#X connect 0 3 28 3;
#X connect 0 4 28 4;
#X connect 0 5 28 5;
#X connect 0 6 28 6;
#X connect 1 0 0 0;
#X connect 3 0 0 7;
#X connect 4 0 1 0;
#X connect 5 0 1 0;
#X connect 6 0 0 1;
#X connect 7 0 6 0;
#X connect 8 0 6 0;
#X connect 9 0 0 6;
#X connect 10 0 9 0;
#X connect 13 0 11 0;
#X connect 13 0 14 0;
#X connect 14 0 11 0;
#X connect 15 0 0 2;
#X connect 16 0 15 0;
#X connect 17 0 0 3;
#X connect 18 0 17 0;
#X connect 19 0 0 4;
#X connect 20 0 19 0;
#X connect 21 0 0 5;
#X connect 22 0 21 0;
#X connect 23 0 15 0;
#X connect 24 0 17 0;
#X connect 25 0 19 0;
#X connect 26 0 21 0;
#X connect 27 0 9 0;
#X connect 28 0 2 0;
#X connect 28 0 2 1;
#X connect 28 0 11 0;
#X connect 29 0 28 7;
