#N canvas 582 50 564 587 12;
#X obj 174 223 gridlocke/simple_matrix~;
#X obj 65 113 osc~;
#X obj 175 378 dac~;
#X msg 86 91 0;
#X obj 113 47 osc~;
#X msg 138 23 0;
#X obj 376 111 osc~;
#X msg 401 87 0;
#X obj 65 378 tabwrite~ neco;
#N canvas 0 22 450 278 (subpatch) 0;
#X array neco 100 float 3;
#A 0 0.604812 0.602715 0.600598 0.598462 0.596306 0.59413 0.591935 0.589721 0.587488 0.585236 0.582965 0.580675 0.578365 0.576037 0.573691 0.571326 0.568942 0.56654 0.56412 0.561681 0.559223 0.556748 0.554255 0.551743 0.549214 0.546667 0.544102 0.541519 0.538919 0.536302 0.533667 0.531014 0.528345 0.525658 0.522954 0.520233 0.517495 0.514741 0.51197 0.509182 0.506377 0.503556 0.500719 0.497865 0.494996 0.49211 0.489208 0.48629 0.483357 0.480408 0.477443 0.474463 0.471467 0.468456 0.46543 0.462389 0.459332 0.456261 0.453175 0.450074 0.446959 0.443829 0.440685 0.437526 0.229745 0.22593 0.222108 0.218278 0.214442 0.210598 0.206748 0.202891 0.199027 0.195157 0.191281 0.187398 0.183509 0.179615 0.175714 0.171808 0.167896 0.163979 0.160056 0.156128 0.152195 0.148258 0.144315 0.140368 0.136416 0.132459 0.128499 0.124534 0.120565 0.116593 0.112616 0.108636 0.104652 0.100665 0.0966744 0.092681;
#X coords 0 1 100 -1 200 140 1;
#X restore 65 419 graph;
#X obj 8 34 loadbang;
#X obj 81 221 metro 100;
#X obj 171 119 osc~;
#X msg 196 95 0;
#X obj 220 42 osc~;
#X msg 245 18 0;
#X obj 268 118 osc~;
#X msg 293 94 0;
#X obj 347 44 osc~;
#X msg 372 20 0;
#X msg 206 17 222;
#X msg 254 93 40;
#X msg 333 19 456;
#X msg 362 86 512;
#N canvas 147 201 833 300 demultiplexor_for_me 0;
#X obj 41 50 inlet~;
#X obj 213 265 outlet~;
#X obj 477 52 inlet;
#X obj 14 70 tgl 18 0 empty empty empty 17 7 0 10 #fcfcfc #000000 #000000 0 1;
#X obj 478 83 t f f b;
#X obj 448 145 route 0 1 2 3 4 5 6;
#X obj 14 93 float;
#X obj 14 117 sig~;
#X obj 45 143 *~;
#X obj 102 54 inlet~;
#X obj 75 74 tgl 18 0 empty empty empty 17 7 0 10 #fcfcfc #000000 #000000 0 1;
#X obj 75 97 float;
#X obj 75 121 sig~;
#X obj 106 147 *~;
#X obj 165 59 inlet~;
#X obj 138 79 tgl 18 0 empty empty empty 17 7 0 10 #fcfcfc #000000 #000000 0 1;
#X obj 138 102 float;
#X obj 138 126 sig~;
#X obj 169 152 *~;
#X obj 226 63 inlet~;
#X obj 199 83 tgl 18 0 empty empty empty 17 7 0 10 #fcfcfc #000000 #000000 0 1;
#X obj 199 106 float;
#X obj 199 130 sig~;
#X obj 230 156 *~;
#X obj 281 67 inlet~;
#X obj 254 87 tgl 18 0 empty empty empty 17 7 0 10 #fcfcfc #000000 #000000 0 1;
#X obj 254 110 float;
#X obj 254 134 sig~;
#X obj 285 160 *~;
#X obj 344 72 inlet~;
#X obj 317 92 tgl 18 0 empty empty empty 17 7 0 10 #fcfcfc #000000 #000000 0 1;
#X obj 317 115 float;
#X obj 317 139 sig~;
#X obj 348 165 *~;
#X obj 405 76 inlet~;
#X obj 378 96 tgl 18 0 empty empty empty 17 7 0 10 #fcfcfc #000000 #000000 0 1;
#X obj 378 119 float;
#X obj 378 143 sig~;
#X obj 409 169 *~;
#X text 419 28 radio gui input;
#X obj 498 114 f -3;
#X text 681 71 cau;
#X connect 0 0 8 1;
#X connect 2 0 4 0;
#X connect 3 0 6 0;
#X connect 4 0 40 1;
#X connect 4 1 40 0;
#X connect 4 2 40 0;
#X connect 5 0 3 0;
#X connect 5 1 10 0;
#X connect 5 2 15 0;
#X connect 5 3 20 0;
#X connect 5 4 25 0;
#X connect 5 5 30 0;
#X connect 5 6 35 0;
#X connect 6 0 7 0;
#X connect 7 0 8 0;
#X connect 8 0 1 0;
#X connect 9 0 13 1;
#X connect 10 0 11 0;
#X connect 11 0 12 0;
#X connect 12 0 13 0;
#X connect 13 0 1 0;
#X connect 14 0 18 1;
#X connect 15 0 16 0;
#X connect 16 0 17 0;
#X connect 17 0 18 0;
#X connect 18 0 1 0;
#X connect 19 0 23 1;
#X connect 20 0 21 0;
#X connect 21 0 22 0;
#X connect 22 0 23 0;
#X connect 23 0 1 0;
#X connect 24 0 28 1;
#X connect 25 0 26 0;
#X connect 26 0 27 0;
#X connect 27 0 28 0;
#X connect 28 0 1 0;
#X connect 29 0 33 1;
#X connect 30 0 31 0;
#X connect 31 0 32 0;
#X connect 32 0 33 0;
#X connect 33 0 1 0;
#X connect 34 0 38 1;
#X connect 35 0 36 0;
#X connect 36 0 37 0;
#X connect 37 0 38 0;
#X connect 38 0 1 0;
#X connect 40 0 5 0;
#X restore 181 297 pd demultiplexor_for_me;
#X obj 254 384 hradio 19 1 0 7 empty empty empty 0 -10 0 12 #fcfcfc #000000 #000000 0;
#X obj 408 200 fudiparse;
#X obj 409 175 netreceive -u -b;
#X msg 373 144 listen 7777;
#X obj 408 225 route /matrix;
#X msg 89 279 \; pd dsp \$1;
#X msg 467 144 listen 0;
#X msg 47 90 200;
#X msg 99 22 300;
#X msg 157 94 349;
#X connect 0 0 24 0;
#X connect 0 1 24 1;
#X connect 0 2 24 2;
#X connect 0 3 24 3;
#X connect 0 4 24 4;
#X connect 0 5 24 5;
#X connect 0 6 24 6;
#X connect 1 0 0 0;
#X connect 3 0 1 0;
#X connect 4 0 0 1;
#X connect 5 0 4 0;
#X connect 6 0 0 6;
#X connect 7 0 6 0;
#X connect 10 0 8 0;
#X connect 10 0 11 0;
#X connect 10 0 28 0;
#X connect 10 0 30 0;
#X connect 11 0 8 0;
#X connect 12 0 0 2;
#X connect 13 0 12 0;
#X connect 14 0 0 3;
#X connect 15 0 14 0;
#X connect 16 0 0 4;
#X connect 17 0 16 0;
#X connect 18 0 0 5;
#X connect 19 0 18 0;
#X connect 20 0 14 0;
#X connect 21 0 16 0;
#X connect 22 0 18 0;
#X connect 23 0 6 0;
#X connect 24 0 2 0;
#X connect 24 0 2 1;
#X connect 24 0 8 0;
#X connect 25 0 24 7;
#X connect 26 0 29 0;
#X connect 27 0 26 0;
#X connect 28 0 27 0;
#X connect 29 0 0 7;
#X connect 31 0 27 0;
#X connect 32 0 1 0;
#X connect 33 0 4 0;
#X connect 34 0 12 0;
