#N canvas 551 138 535 510 12;
#X obj 229 81 netreceive -u -b;
#X obj 228 106 oscparse;
#X obj 226 132 list trim;
#X obj 227 155 route matrix;
#X msg 205 49 listen 0;
#X obj 226 179 route data;
#X obj 223 206 symbol;
#X obj 70 283 gridlocke/simple_matrix~;
#X text 352 82 -u UDP -b binary mode;
#X obj 291 13 loadbang;
#X obj 70 326 dac~;
#X obj 51 207 osc~;
#X msg 87 154 0;
#X msg 41 151 385;
#X obj 429 15 tgl 19 0 empty empty empty 0 -10 0 12 #fcfcfc #000000 #000000 0 1;
#X msg 281 53 listen 7878;
#X obj 227 232 gridlocke/changes;
#X msg 438 42 \; pd dsp \$1;
#X connect 0 0 1 0;
#X connect 1 0 2 0;
#X connect 2 0 3 0;
#X connect 3 0 5 0;
#X connect 4 0 0 0;
#X connect 5 0 6 0;
#X connect 6 0 16 0;
#X connect 7 0 10 0;
#X connect 7 0 10 1;
#X connect 9 0 14 0;
#X connect 11 0 7 0;
#X connect 12 0 11 0;
#X connect 13 0 11 0;
#X connect 14 0 17 0;
#X connect 15 0 0 0;
#X connect 16 0 7 1;
